<?xml version="1.0" encoding="utf-8"?>
<!-- Generator: Adobe Illustrator 16.0.0, SVG Export Plug-In . SVG Version: 6.00 Build 0)  -->
<!DOCTYPE svg PUBLIC "-//W3C//DTD SVG 1.1//EN" "http://www.w3.org/Graphics/SVG/1.1/DTD/svg11.dtd">
<svg version="1.1" id="Livello_1" xmlns="http://www.w3.org/2000/svg" xmlns:xlink="http://www.w3.org/1999/xlink" x="0px" y="0px"
	 width="64px" height="64px" viewBox="0 0 64 64" enable-background="new 0 0 64 64" xml:space="preserve">
<g>
	<path fill="#445261" d="M62,32c0,16.565-13.435,30-30,30C15.432,62,2,48.565,2,32C2,15.432,15.432,2,32,2C48.565,2,62,15.432,62,32
		z"/>
	<path opacity="0.35" d="M61.868,34.597c-0.011-0.011-0.022-0.022-0.033-0.033c-0.036-0.036-0.071-0.073-0.107-0.109
		c-0.035-0.035-0.07-0.07-0.106-0.104c-0.035-0.036-0.069-0.071-0.104-0.106c-0.037-0.036-0.073-0.072-0.108-0.108
		c-0.036-0.034-0.069-0.067-0.103-0.103c-0.038-0.037-0.075-0.074-0.111-0.111c-0.033-0.031-0.064-0.063-0.097-0.096
		c-0.037-0.038-0.075-0.076-0.114-0.113c-0.036-0.036-0.071-0.072-0.107-0.108c-0.035-0.035-0.07-0.071-0.106-0.105
		c-0.035-0.035-0.069-0.07-0.104-0.104c-0.035-0.037-0.071-0.072-0.106-0.108c-0.034-0.033-0.067-0.067-0.103-0.101
		c-0.036-0.037-0.073-0.074-0.111-0.111c-0.035-0.035-0.069-0.069-0.104-0.104c-0.033-0.034-0.065-0.068-0.099-0.101
		c-0.04-0.041-0.081-0.081-0.123-0.121c-0.031-0.031-0.063-0.063-0.095-0.095c-0.033-0.034-0.068-0.069-0.103-0.103
		c-0.039-0.039-0.075-0.077-0.115-0.115c-0.035-0.036-0.07-0.071-0.106-0.106c-0.033-0.033-0.066-0.066-0.099-0.099
		c-0.037-0.037-0.072-0.073-0.108-0.11c-0.037-0.036-0.071-0.071-0.108-0.106c-0.036-0.038-0.073-0.074-0.109-0.111
		c-0.033-0.032-0.066-0.065-0.099-0.098c-0.035-0.036-0.07-0.072-0.106-0.107c-0.037-0.038-0.075-0.075-0.112-0.111
		c-0.034-0.034-0.067-0.068-0.101-0.102c-0.036-0.036-0.073-0.074-0.111-0.11c-0.035-0.034-0.069-0.069-0.103-0.104
		c-0.037-0.036-0.071-0.071-0.108-0.107c-0.036-0.036-0.071-0.07-0.105-0.105c-0.035-0.036-0.07-0.072-0.106-0.106
		c-0.037-0.037-0.073-0.073-0.11-0.109c-0.032-0.034-0.065-0.067-0.101-0.101c-0.034-0.037-0.071-0.073-0.107-0.109
		c-0.035-0.037-0.07-0.072-0.106-0.106c-0.037-0.037-0.071-0.071-0.108-0.107c-0.033-0.036-0.067-0.07-0.104-0.104
		c-0.036-0.038-0.073-0.074-0.109-0.111c-0.033-0.033-0.066-0.066-0.099-0.099c-0.035-0.035-0.07-0.07-0.104-0.105
		c-0.039-0.04-0.077-0.078-0.117-0.116c-0.035-0.035-0.07-0.07-0.104-0.105c-0.033-0.033-0.066-0.066-0.099-0.099
		c-0.037-0.037-0.072-0.073-0.108-0.109c-0.037-0.036-0.071-0.072-0.108-0.108c-0.036-0.037-0.073-0.072-0.109-0.108
		c-0.033-0.034-0.066-0.068-0.101-0.103c-0.037-0.036-0.071-0.071-0.108-0.107c-0.035-0.036-0.069-0.071-0.106-0.107
		c-0.036-0.036-0.073-0.072-0.109-0.108c-0.031-0.033-0.066-0.066-0.099-0.1c-0.037-0.037-0.073-0.073-0.11-0.11
		c-0.035-0.037-0.071-0.072-0.108-0.109c-0.034-0.035-0.071-0.071-0.107-0.106c-0.033-0.033-0.066-0.068-0.101-0.102
		c-0.035-0.036-0.071-0.072-0.106-0.107c-0.037-0.036-0.071-0.072-0.108-0.108c-0.036-0.036-0.071-0.071-0.107-0.107
		c-0.033-0.034-0.068-0.069-0.104-0.104c-0.033-0.034-0.066-0.068-0.101-0.103c-0.039-0.04-0.079-0.078-0.119-0.118
		c-0.033-0.033-0.066-0.067-0.103-0.101c-0.031-0.033-0.066-0.067-0.099-0.1c-0.039-0.038-0.075-0.075-0.112-0.112
		c-0.034-0.034-0.067-0.068-0.103-0.103c-0.038-0.037-0.075-0.075-0.111-0.112c-0.035-0.034-0.066-0.067-0.101-0.101
		c-0.039-0.037-0.075-0.074-0.112-0.111c-0.031-0.032-0.063-0.063-0.095-0.096c-0.039-0.039-0.079-0.079-0.117-0.117
		c-0.033-0.033-0.066-0.066-0.099-0.099c-0.039-0.039-0.077-0.076-0.114-0.114c-0.032-0.034-0.065-0.066-0.101-0.1
		c-0.038-0.038-0.075-0.076-0.111-0.113c-0.033-0.032-0.066-0.065-0.099-0.098c-0.037-0.037-0.075-0.076-0.114-0.113
		c-0.034-0.035-0.067-0.069-0.103-0.104c-0.036-0.036-0.073-0.072-0.107-0.107c-0.035-0.035-0.068-0.07-0.104-0.104
		c-0.035-0.036-0.069-0.071-0.106-0.107c-0.035-0.036-0.071-0.072-0.108-0.108c-0.034-0.035-0.069-0.069-0.104-0.104
		c-0.035-0.035-0.07-0.07-0.106-0.106c-0.037-0.036-0.071-0.072-0.108-0.107c-0.034-0.036-0.069-0.07-0.104-0.105
		c-0.036-0.036-0.071-0.07-0.105-0.105c-0.035-0.034-0.07-0.069-0.103-0.103c-0.039-0.039-0.077-0.076-0.114-0.114
		c-0.032-0.034-0.065-0.066-0.101-0.101c-0.036-0.037-0.073-0.073-0.111-0.11c-0.033-0.035-0.068-0.069-0.103-0.104
		c-0.037-0.035-0.071-0.071-0.106-0.106c-0.036-0.036-0.073-0.073-0.109-0.108c-0.033-0.035-0.068-0.068-0.102-0.103
		c-0.036-0.036-0.071-0.072-0.107-0.108c-0.037-0.036-0.071-0.071-0.106-0.106c-0.036-0.037-0.075-0.073-0.111-0.11
		c-0.031-0.033-0.066-0.066-0.098-0.099c-0.036-0.037-0.073-0.074-0.111-0.111c-0.035-0.035-0.069-0.07-0.104-0.104
		c-0.036-0.037-0.075-0.074-0.111-0.111c-0.031-0.032-0.064-0.064-0.098-0.098c-0.036-0.035-0.071-0.071-0.105-0.106
		c-0.039-0.039-0.077-0.077-0.114-0.115c-0.036-0.035-0.071-0.068-0.105-0.104c-0.033-0.035-0.068-0.068-0.102-0.103
		c-0.036-0.036-0.071-0.072-0.107-0.107c-0.037-0.036-0.071-0.072-0.106-0.106c-0.036-0.037-0.075-0.073-0.111-0.11
		c-0.031-0.033-0.066-0.066-0.098-0.099c-0.036-0.037-0.073-0.074-0.111-0.111c-0.035-0.034-0.067-0.067-0.101-0.101
		c-0.039-0.038-0.077-0.076-0.113-0.114c-0.035-0.034-0.068-0.067-0.103-0.101c-0.037-0.037-0.073-0.074-0.112-0.111
		c-0.031-0.033-0.065-0.066-0.099-0.1c-0.037-0.037-0.073-0.073-0.111-0.11c-0.033-0.034-0.066-0.067-0.1-0.101
		c-0.038-0.038-0.076-0.076-0.115-0.114c-0.033-0.034-0.065-0.067-0.099-0.1c-0.038-0.038-0.075-0.074-0.113-0.111
		c-0.031-0.033-0.066-0.066-0.098-0.099c-0.036-0.035-0.071-0.071-0.107-0.107c-0.037-0.037-0.071-0.073-0.108-0.11
		c-0.036-0.037-0.073-0.073-0.109-0.11c-0.033-0.034-0.068-0.067-0.102-0.1c-0.038-0.038-0.074-0.075-0.113-0.112
		c-0.031-0.033-0.065-0.066-0.097-0.098c-0.037-0.038-0.075-0.075-0.113-0.112c-0.033-0.035-0.068-0.068-0.102-0.102
		c-0.036-0.037-0.074-0.075-0.111-0.112c-0.033-0.035-0.069-0.068-0.103-0.103c-0.036-0.036-0.071-0.072-0.108-0.108
		c-0.034-0.035-0.069-0.069-0.103-0.103c-0.036-0.036-0.071-0.072-0.107-0.108c-0.037-0.036-0.071-0.072-0.108-0.107
		c-0.036-0.038-0.075-0.075-0.111-0.111c-0.031-0.033-0.066-0.065-0.098-0.098c-0.036-0.037-0.073-0.074-0.111-0.11
		c-0.035-0.036-0.069-0.071-0.106-0.106c-0.032-0.034-0.065-0.068-0.101-0.102c-0.036-0.037-0.073-0.074-0.111-0.111
		c-0.035-0.035-0.068-0.07-0.103-0.105c-0.037-0.036-0.073-0.071-0.108-0.106c-0.034-0.035-0.069-0.069-0.104-0.105
		c-0.036-0.037-0.073-0.074-0.111-0.111c-0.033-0.032-0.064-0.065-0.097-0.097c-0.039-0.039-0.077-0.077-0.114-0.115
		c-0.034-0.035-0.067-0.068-0.103-0.103c-3.495-3.522-8.337-5.706-13.691-5.706C21.347,12.712,12.71,21.348,12.71,32
		c0,5.351,2.182,10.189,5.701,13.685c0.039,0.038,0.077,0.076,0.115,0.114c0.036,0.035,0.07,0.069,0.105,0.104
		c0.034,0.034,0.068,0.067,0.102,0.101c0.035,0.037,0.072,0.073,0.108,0.109c0.036,0.035,0.07,0.071,0.105,0.105
		c0.036,0.036,0.071,0.07,0.106,0.105c0.035,0.037,0.069,0.071,0.106,0.106c0.037,0.037,0.073,0.074,0.112,0.111
		c0.032,0.033,0.066,0.066,0.098,0.099c0.038,0.039,0.078,0.077,0.116,0.116c0.035,0.034,0.068,0.068,0.104,0.103
		c0.034,0.033,0.067,0.067,0.102,0.102c0.035,0.034,0.069,0.07,0.105,0.106c0.035,0.034,0.071,0.07,0.105,0.104
		c0.037,0.038,0.073,0.074,0.11,0.111c0.037,0.035,0.071,0.071,0.108,0.106c0.034,0.033,0.066,0.067,0.1,0.101
		c0.038,0.038,0.075,0.075,0.112,0.113c0.034,0.033,0.068,0.066,0.102,0.101c0.037,0.036,0.073,0.073,0.11,0.109
		c0.034,0.035,0.069,0.07,0.104,0.104c0.037,0.037,0.073,0.073,0.11,0.11c0.033,0.033,0.066,0.066,0.1,0.101
		c0.038,0.038,0.076,0.075,0.114,0.113c0.034,0.034,0.068,0.068,0.101,0.102c0.037,0.036,0.072,0.072,0.109,0.109
		c0.034,0.033,0.067,0.066,0.101,0.101c0.038,0.038,0.076,0.076,0.114,0.114c0.034,0.033,0.066,0.067,0.1,0.1
		c0.038,0.038,0.074,0.074,0.113,0.112c0.032,0.033,0.066,0.065,0.098,0.099c0.038,0.038,0.076,0.075,0.114,0.113
		c0.032,0.033,0.066,0.066,0.098,0.099c0.037,0.038,0.075,0.075,0.112,0.112c0.036,0.035,0.071,0.071,0.107,0.106
		c0.034,0.034,0.067,0.068,0.102,0.103c0.035,0.034,0.069,0.07,0.105,0.105c0.037,0.037,0.074,0.074,0.111,0.111
		c0.036,0.035,0.071,0.068,0.104,0.104c0.035,0.034,0.07,0.07,0.105,0.104c0.036,0.035,0.068,0.069,0.104,0.104
		c0.037,0.037,0.073,0.073,0.111,0.11c0.034,0.034,0.068,0.068,0.102,0.103c0.037,0.036,0.074,0.073,0.111,0.109
		c0.037,0.037,0.072,0.073,0.109,0.109c0.032,0.033,0.064,0.064,0.098,0.097c0.035,0.037,0.071,0.073,0.108,0.109
		s0.072,0.073,0.109,0.109c0.038,0.037,0.074,0.074,0.113,0.112c0.031,0.031,0.062,0.061,0.092,0.092
		c0.035,0.036,0.071,0.072,0.107,0.107c0.039,0.04,0.077,0.079,0.117,0.117c0.033,0.035,0.068,0.069,0.104,0.104
		c0.034,0.034,0.067,0.067,0.102,0.102c0.035,0.035,0.068,0.069,0.104,0.104c0.038,0.038,0.076,0.076,0.114,0.114
		c0.034,0.034,0.068,0.068,0.103,0.102c0.035,0.036,0.07,0.071,0.105,0.106c0.037,0.036,0.073,0.073,0.111,0.11
		c0.032,0.032,0.066,0.066,0.098,0.1c0.037,0.036,0.073,0.072,0.11,0.108c0.035,0.036,0.07,0.071,0.107,0.107
		c0.035,0.036,0.071,0.07,0.107,0.106c0.033,0.034,0.068,0.07,0.104,0.105c0.036,0.034,0.07,0.069,0.105,0.104
		c0.036,0.037,0.072,0.073,0.107,0.109c0.038,0.037,0.075,0.074,0.111,0.11c0.034,0.033,0.066,0.066,0.1,0.099
		c0.037,0.037,0.073,0.074,0.111,0.111c0.034,0.034,0.067,0.067,0.102,0.101c0.035,0.036,0.069,0.07,0.105,0.106
		c0.037,0.037,0.074,0.074,0.111,0.111c0.037,0.036,0.072,0.072,0.109,0.107c0.032,0.034,0.066,0.066,0.098,0.099
		c0.037,0.037,0.073,0.073,0.11,0.11c0.035,0.035,0.07,0.071,0.105,0.105c0.037,0.036,0.073,0.073,0.11,0.108
		c0.034,0.035,0.067,0.069,0.102,0.103c0.037,0.037,0.073,0.073,0.111,0.11c0.032,0.033,0.066,0.067,0.1,0.102
		c0.039,0.037,0.076,0.075,0.114,0.113c0.032,0.033,0.066,0.065,0.098,0.099c0.039,0.038,0.076,0.076,0.114,0.113
		c0.032,0.033,0.066,0.066,0.098,0.1c0.039,0.037,0.075,0.074,0.113,0.111c0.034,0.035,0.067,0.068,0.103,0.103
		c0.037,0.038,0.073,0.074,0.111,0.11c0.032,0.034,0.066,0.067,0.098,0.101c0.039,0.037,0.075,0.074,0.112,0.11
		c0.035,0.035,0.068,0.069,0.104,0.104c0.036,0.036,0.072,0.072,0.109,0.109c0.035,0.036,0.071,0.072,0.108,0.108
		c0.034,0.034,0.068,0.067,0.101,0.1c0.036,0.037,0.071,0.071,0.106,0.106c0.037,0.037,0.073,0.073,0.11,0.11
		c0.037,0.036,0.073,0.072,0.108,0.107c0.034,0.034,0.068,0.068,0.101,0.101c0.034,0.035,0.07,0.07,0.104,0.105
		c0.039,0.038,0.076,0.076,0.114,0.114c0.035,0.035,0.071,0.07,0.105,0.104c0.034,0.034,0.068,0.068,0.101,0.101
		c0.034,0.035,0.07,0.07,0.104,0.105c0.039,0.038,0.076,0.076,0.114,0.114c0.034,0.033,0.067,0.067,0.101,0.102
		c0.037,0.036,0.072,0.072,0.109,0.107c0.037,0.037,0.071,0.072,0.108,0.107c0.034,0.034,0.068,0.068,0.101,0.102
		c0.037,0.037,0.073,0.074,0.112,0.11c0.034,0.035,0.068,0.069,0.101,0.102c0.039,0.04,0.077,0.077,0.116,0.116
		c0.03,0.03,0.062,0.061,0.093,0.093c0.038,0.038,0.074,0.076,0.113,0.113c0.034,0.035,0.07,0.07,0.104,0.104
		c0.035,0.036,0.071,0.071,0.108,0.108c0.034,0.034,0.07,0.069,0.104,0.104s0.071,0.071,0.108,0.107
		c0.034,0.035,0.07,0.07,0.104,0.104c0.034,0.035,0.068,0.069,0.103,0.104c0.039,0.038,0.076,0.076,0.114,0.114
		c0.035,0.034,0.069,0.069,0.104,0.103c0.034,0.035,0.07,0.07,0.104,0.105c0.034,0.033,0.066,0.067,0.1,0.1
		c0.04,0.041,0.079,0.081,0.12,0.12c0.034,0.034,0.068,0.067,0.101,0.1c0.034,0.035,0.07,0.07,0.104,0.105
		c0.035,0.034,0.068,0.068,0.103,0.103c0.039,0.038,0.076,0.076,0.114,0.114c0.035,0.035,0.071,0.07,0.105,0.104
		c0.034,0.034,0.068,0.068,0.101,0.101c0.037,0.037,0.073,0.073,0.11,0.11c0.036,0.034,0.07,0.069,0.104,0.104
		c0.037,0.036,0.073,0.072,0.11,0.108c0.034,0.035,0.068,0.069,0.101,0.103c0.037,0.036,0.072,0.072,0.107,0.107
		c0.037,0.037,0.073,0.072,0.109,0.108c0.035,0.035,0.069,0.07,0.105,0.105c0.035,0.035,0.071,0.071,0.108,0.106
		c0.034,0.035,0.069,0.07,0.104,0.106c0.034,0.034,0.071,0.07,0.107,0.106c0.035,0.034,0.07,0.07,0.104,0.105
		c0.035,0.035,0.071,0.07,0.104,0.104c0.037,0.038,0.075,0.074,0.111,0.111c0.035,0.035,0.07,0.07,0.104,0.105
		c0.037,0.035,0.071,0.07,0.106,0.104c0.033,0.034,0.069,0.069,0.103,0.103c0.037,0.037,0.071,0.072,0.106,0.108
		c0.038,0.038,0.078,0.076,0.117,0.114c0.029,0.031,0.061,0.063,0.092,0.093c0.038,0.037,0.074,0.076,0.111,0.112
		c0.036,0.036,0.071,0.071,0.108,0.107c0.034,0.036,0.071,0.073,0.107,0.109c0.035,0.033,0.068,0.066,0.101,0.101
		c0.015,0.013,0.026,0.025,0.039,0.038C49.087,60.623,60.623,49.088,61.868,34.597z"/>
	<path id="CERCHIO_2_" fill="#D24D57" d="M32,17.212c8.154,0,14.79,6.633,14.79,14.788c0,8.153-6.636,14.787-14.79,14.787
		c-8.155,0-14.79-6.634-14.79-14.787C17.21,23.845,23.845,17.212,32,17.212 M32,12.712C21.347,12.712,12.71,21.348,12.71,32
		c0,10.651,8.637,19.287,19.289,19.287c10.652,0,19.289-8.636,19.289-19.287C51.288,21.348,42.651,12.712,32,12.712L32,12.712z"/>
</g>
</svg>
