<?xml version="1.0" encoding="utf-8"?>
<!-- Generator: Adobe Illustrator 16.0.0, SVG Export Plug-In . SVG Version: 6.00 Build 0)  -->
<!DOCTYPE svg PUBLIC "-//W3C//DTD SVG 1.1//EN" "http://www.w3.org/Graphics/SVG/1.1/DTD/svg11.dtd">
<svg version="1.1" id="Livello_1" xmlns="http://www.w3.org/2000/svg" xmlns:xlink="http://www.w3.org/1999/xlink" x="0px" y="0px"
	 width="64px" height="64px" viewBox="0 0 64 64" enable-background="new 0 0 64 64" xml:space="preserve">
<g>
	<path fill="#445261" d="M62,32c0,16.565-13.433,30-30,30S2,48.565,2,32C2,15.433,15.433,2,32,2S62,15.433,62,32z"/>
	<path opacity="0.35" d="M62,32c0-1.582-0.159-3.123-0.396-4.639c-0.005-0.003-0.01-0.006-0.015-0.011
		c-0.019-0.019-0.024-0.044-0.042-0.063c-0.019-0.02-0.044-0.024-0.064-0.043c-0.018-0.019-0.023-0.045-0.042-0.064
		c-0.02-0.019-0.046-0.024-0.066-0.044c-0.018-0.019-0.023-0.044-0.041-0.061c-0.02-0.02-0.044-0.024-0.063-0.043
		c-0.018-0.019-0.022-0.044-0.042-0.063c-0.018-0.018-0.044-0.023-0.062-0.041c-0.019-0.021-0.024-0.047-0.044-0.066
		c-0.019-0.02-0.044-0.025-0.064-0.043c-0.018-0.019-0.023-0.045-0.042-0.064c-0.02-0.019-0.046-0.024-0.064-0.042
		c-0.019-0.019-0.023-0.044-0.043-0.063c-0.018-0.02-0.044-0.025-0.064-0.043c-0.017-0.019-0.023-0.044-0.041-0.063
		c-0.02-0.019-0.044-0.023-0.063-0.042c-0.019-0.019-0.022-0.044-0.042-0.063c-0.019-0.019-0.044-0.025-0.064-0.042
		c-0.018-0.019-0.023-0.045-0.042-0.064c-0.02-0.019-0.046-0.025-0.064-0.042c-0.019-0.019-0.023-0.045-0.043-0.064
		c-0.02-0.02-0.044-0.024-0.064-0.043c-0.017-0.019-0.021-0.044-0.041-0.063c-0.02-0.019-0.044-0.023-0.063-0.042
		c-0.019-0.019-0.022-0.044-0.042-0.063c-0.017-0.019-0.044-0.023-0.063-0.042c-0.02-0.019-0.025-0.045-0.042-0.064
		c-0.021-0.019-0.046-0.025-0.065-0.042c-0.018-0.019-0.022-0.045-0.044-0.064c-0.018-0.02-0.044-0.024-0.063-0.043
		c-0.018-0.019-0.022-0.044-0.042-0.063c-0.018-0.019-0.044-0.025-0.063-0.042c-0.019-0.019-0.024-0.044-0.042-0.063
		c-0.017-0.018-0.044-0.023-0.061-0.041c-0.02-0.021-0.026-0.047-0.044-0.066c-0.02-0.019-0.044-0.025-0.065-0.042
		c-0.018-0.019-0.022-0.045-0.042-0.064c-0.02-0.02-0.046-0.025-0.065-0.043c-0.018-0.019-0.022-0.044-0.042-0.063
		c-0.018-0.019-0.044-0.023-0.063-0.042c-0.017-0.019-0.022-0.044-0.042-0.063c-0.017-0.019-0.044-0.023-0.061-0.042
		c-0.02-0.019-0.026-0.045-0.044-0.064c-0.02-0.019-0.044-0.025-0.065-0.042c-0.018-0.019-0.022-0.045-0.042-0.064
		c-0.02-0.02-0.044-0.024-0.063-0.043c-0.018-0.019-0.023-0.044-0.042-0.063c-0.02-0.019-0.044-0.023-0.063-0.042
		C59.026,24.784,59.02,24.759,59,24.74c-0.018-0.019-0.045-0.025-0.065-0.044c-0.018-0.019-0.023-0.044-0.04-0.062
		c-0.02-0.019-0.044-0.025-0.065-0.042c-0.018-0.02-0.022-0.046-0.042-0.065s-0.044-0.025-0.063-0.042
		c-0.018-0.019-0.023-0.044-0.042-0.063c-0.02-0.018-0.043-0.023-0.063-0.041c-0.018-0.021-0.024-0.047-0.044-0.066
		c-0.018-0.019-0.045-0.025-0.065-0.044c-0.018-0.019-0.023-0.044-0.04-0.062c-0.019-0.019-0.044-0.023-0.063-0.042
		c-0.02-0.02-0.024-0.046-0.043-0.065c-0.021-0.019-0.045-0.025-0.064-0.042c-0.018-0.019-0.023-0.044-0.042-0.063
		c-0.02-0.019-0.044-0.025-0.063-0.042c-0.017-0.02-0.023-0.044-0.043-0.063c-0.018-0.019-0.045-0.024-0.063-0.042
		c-0.018-0.019-0.024-0.045-0.042-0.064c-0.019-0.019-0.044-0.023-0.063-0.041c-0.02-0.021-0.024-0.047-0.043-0.066
		s-0.044-0.025-0.064-0.042c-0.018-0.019-0.023-0.044-0.041-0.063c-0.02-0.019-0.044-0.025-0.064-0.042
		c-0.017-0.02-0.023-0.044-0.041-0.063c-0.02-0.019-0.046-0.024-0.063-0.042c-0.02-0.019-0.024-0.045-0.044-0.064
		c-0.019-0.019-0.044-0.023-0.063-0.042c-0.019-0.02-0.024-0.046-0.044-0.065c-0.019-0.019-0.044-0.025-0.063-0.042
		c-0.02-0.019-0.023-0.044-0.043-0.063c-0.021-0.019-0.047-0.025-0.065-0.044c-0.018-0.019-0.022-0.044-0.042-0.062
		c-0.018-0.019-0.044-0.023-0.062-0.042c-0.019-0.019-0.024-0.045-0.044-0.064c-0.019-0.019-0.044-0.025-0.065-0.042
		c-0.018-0.02-0.022-0.044-0.041-0.063c-0.019-0.019-0.044-0.023-0.064-0.042c-0.018-0.019-0.021-0.044-0.041-0.063
		c-0.018-0.02-0.044-0.024-0.063-0.043c-0.018-0.019-0.024-0.045-0.042-0.064c-0.019-0.019-0.044-0.023-0.063-0.042
		c-0.019-0.019-0.024-0.045-0.043-0.064c-0.02-0.019-0.045-0.025-0.066-0.044c-0.018-0.019-0.022-0.044-0.041-0.062
		c-0.018-0.017-0.044-0.023-0.062-0.041c-0.02-0.02-0.024-0.047-0.044-0.066c-0.021-0.019-0.047-0.025-0.065-0.044
		c-0.018-0.018-0.022-0.042-0.04-0.06c-0.019-0.019-0.044-0.023-0.063-0.042c-0.019-0.019-0.024-0.045-0.043-0.064
		c-0.02-0.02-0.044-0.024-0.063-0.043C56.266,22.026,56.26,22,56.239,21.98c-0.018-0.019-0.044-0.023-0.063-0.042
		c-0.019-0.019-0.023-0.044-0.043-0.063c-0.018-0.02-0.044-0.025-0.064-0.042c-0.017-0.02-0.023-0.044-0.041-0.063
		c-0.019-0.019-0.044-0.024-0.063-0.042c-0.019-0.019-0.024-0.045-0.043-0.064c-0.02-0.018-0.043-0.024-0.062-0.042
		c-0.02-0.021-0.025-0.046-0.044-0.066c-0.02-0.019-0.046-0.024-0.066-0.044c-0.018-0.019-0.023-0.044-0.041-0.061
		c-0.02-0.02-0.044-0.024-0.064-0.042c-0.017-0.02-0.021-0.044-0.041-0.063c-0.018-0.019-0.044-0.023-0.063-0.042
		c-0.02-0.019-0.025-0.045-0.043-0.064c-0.019-0.02-0.044-0.024-0.064-0.042c-0.018-0.02-0.023-0.045-0.042-0.065
		c-0.02-0.019-0.046-0.024-0.064-0.042c-0.019-0.019-0.023-0.044-0.043-0.063c-0.018-0.02-0.044-0.024-0.063-0.042
		c-0.017-0.02-0.022-0.044-0.042-0.063c-0.018-0.019-0.044-0.023-0.062-0.041c-0.019-0.021-0.024-0.047-0.044-0.066
		c-0.019-0.02-0.044-0.025-0.064-0.042c-0.018-0.02-0.023-0.045-0.042-0.065c-0.02-0.019-0.046-0.024-0.064-0.042
		c-0.019-0.019-0.023-0.044-0.043-0.063c-0.018-0.02-0.044-0.024-0.063-0.042c-0.017-0.02-0.021-0.044-0.042-0.063
		c-0.018-0.019-0.044-0.024-0.063-0.042c-0.019-0.019-0.024-0.044-0.042-0.063c-0.017-0.02-0.044-0.023-0.063-0.043
		c-0.02-0.019-0.025-0.045-0.042-0.064c-0.021-0.019-0.046-0.024-0.065-0.042c-0.018-0.019-0.022-0.044-0.042-0.063
		c-0.02-0.018-0.043-0.023-0.062-0.042c-0.02-0.021-0.025-0.046-0.044-0.066c-0.02-0.019-0.046-0.024-0.065-0.044
		c-0.019-0.019-0.024-0.044-0.042-0.061c-0.019-0.02-0.044-0.025-0.064-0.043c-0.018-0.019-0.023-0.045-0.042-0.064
		c-0.02-0.017-0.042-0.023-0.062-0.041c-0.02-0.021-0.024-0.047-0.044-0.066c-0.02-0.02-0.044-0.024-0.063-0.042
		c-0.018-0.02-0.023-0.044-0.042-0.063c-0.02-0.019-0.046-0.024-0.065-0.044c-0.019-0.019-0.024-0.044-0.042-0.061
		c-0.019-0.02-0.045-0.025-0.064-0.043c-0.018-0.019-0.023-0.044-0.04-0.063c-0.02-0.018-0.044-0.023-0.063-0.041
		c-0.019-0.021-0.024-0.047-0.044-0.066c-0.019-0.02-0.044-0.023-0.064-0.043c-0.018-0.019-0.023-0.045-0.042-0.064
		c-0.02-0.019-0.044-0.023-0.063-0.042c-0.017-0.019-0.023-0.044-0.043-0.063c-0.018-0.02-0.045-0.025-0.065-0.044
		c-0.018-0.02-0.023-0.044-0.04-0.062c-0.019-0.019-0.044-0.023-0.063-0.042c-0.02-0.02-0.024-0.046-0.043-0.064
		c-0.021-0.02-0.044-0.025-0.064-0.043c-0.018-0.019-0.023-0.044-0.041-0.063c-0.021-0.019-0.045-0.025-0.064-0.042
		c-0.017-0.02-0.023-0.046-0.044-0.064c-0.017-0.02-0.044-0.025-0.064-0.043c-0.018-0.019-0.023-0.044-0.04-0.063
		c-0.02-0.019-0.044-0.023-0.063-0.042c-0.02-0.02-0.023-0.044-0.043-0.063c-0.018-0.019-0.044-0.023-0.063-0.042
		c-0.02-0.019-0.025-0.045-0.043-0.064c-0.021-0.019-0.045-0.025-0.064-0.042c-0.017-0.02-0.023-0.046-0.044-0.064
		c-0.017-0.02-0.044-0.025-0.064-0.043c-0.018-0.019-0.023-0.044-0.04-0.063c-0.019-0.018-0.044-0.023-0.063-0.041
		c-0.019-0.021-0.024-0.047-0.044-0.066c-0.019-0.02-0.044-0.025-0.064-0.043c-0.018-0.019-0.021-0.044-0.041-0.063
		c-0.021-0.019-0.047-0.025-0.066-0.044c-0.019-0.019-0.022-0.044-0.042-0.062c-0.017-0.019-0.043-0.023-0.061-0.041
		c-0.019-0.02-0.024-0.047-0.044-0.066c-0.019-0.019-0.044-0.023-0.063-0.042c-0.018-0.02-0.023-0.044-0.043-0.063
		c-0.018-0.019-0.044-0.023-0.062-0.042c-0.02-0.019-0.024-0.045-0.044-0.064c-0.021-0.019-0.047-0.025-0.065-0.044
		c-0.018-0.019-0.022-0.044-0.042-0.062c-0.018-0.017-0.042-0.023-0.061-0.041c-0.02-0.02-0.025-0.047-0.044-0.066
		c-0.02-0.019-0.045-0.025-0.064-0.042c-0.018-0.02-0.023-0.044-0.043-0.063c-0.018-0.019-0.044-0.023-0.062-0.042
		c-0.02-0.019-0.024-0.045-0.044-0.064c-0.021-0.019-0.047-0.025-0.065-0.044c-0.018-0.019-0.022-0.044-0.042-0.062
		c-0.018-0.019-0.044-0.024-0.062-0.042c-0.019-0.019-0.024-0.044-0.043-0.063c-0.02-0.018-0.043-0.024-0.062-0.042
		c-0.02-0.021-0.025-0.046-0.044-0.066c-0.02-0.021-0.047-0.026-0.068-0.044c-0.016-0.019-0.021-0.044-0.039-0.061
		c-0.02-0.018-0.044-0.024-0.062-0.042c-0.019-0.021-0.024-0.046-0.044-0.066c-0.019-0.019-0.044-0.023-0.063-0.042
		c-0.019-0.019-0.024-0.045-0.043-0.064c-0.02-0.019-0.044-0.023-0.063-0.042c-0.018-0.02-0.023-0.044-0.042-0.063
		c-0.02-0.019-0.046-0.024-0.066-0.044c-0.018-0.019-0.023-0.044-0.041-0.061c-0.018-0.02-0.044-0.024-0.063-0.042
		c-0.018-0.02-0.024-0.045-0.042-0.065c-0.02-0.019-0.044-0.024-0.063-0.042c-0.019-0.019-0.024-0.044-0.042-0.063
		c-0.019-0.02-0.044-0.024-0.064-0.042c-0.018-0.02-0.023-0.044-0.04-0.063c-0.021-0.019-0.048-0.024-0.066-0.044
		c-0.02-0.019-0.023-0.044-0.043-0.063c-0.02-0.019-0.044-0.024-0.063-0.042c-0.018-0.02-0.022-0.044-0.042-0.063
		c-0.018-0.019-0.044-0.023-0.063-0.042c-0.02-0.019-0.025-0.045-0.042-0.064c-0.02-0.018-0.044-0.024-0.062-0.041
		c-0.021-0.021-0.026-0.047-0.044-0.066c-0.021-0.02-0.046-0.025-0.065-0.043c-0.018-0.019-0.022-0.044-0.042-0.063
		c-0.02-0.019-0.046-0.025-0.065-0.044c-0.018-0.019-0.024-0.044-0.042-0.062c-0.019-0.019-0.044-0.023-0.063-0.042
		c-0.02-0.019-0.023-0.044-0.042-0.063c-0.02-0.02-0.044-0.025-0.065-0.042c-0.018-0.02-0.022-0.045-0.042-0.065
		c-0.02-0.019-0.042-0.023-0.062-0.041c-0.02-0.021-0.024-0.047-0.044-0.066c-0.02-0.019-0.046-0.025-0.065-0.042
		c-0.017-0.02-0.022-0.044-0.042-0.063c-0.879-0.879-2.302-0.879-3.181,0L32.001,28.818L18.69,15.506
		c-0.002,0-0.003-0.001-0.003-0.001l-0.104-0.104c-0.001,0-0.001-0.002-0.001-0.002l-0.531-0.529c-0.879-0.879-2.303-0.879-3.182,0
		s-0.879,2.303,0,3.182l0.318,0.316c0.002,0.001,0.002,0.002,0.002,0.002l0.317,0.318l0.425,0.425l0.53,0.53l0.637,0.637
		l0.106,0.105l1.167,1.168l0.107,0.106l0.53,0.53l0.635,0.636v0.001l9.108,9.107L28.818,32L14.87,45.948
		c-0.879,0.879-0.879,2.302,0,3.181c0.02,0.02,0.044,0.024,0.065,0.043c0.018,0.02,0.023,0.045,0.042,0.064
		c0.019,0.02,0.044,0.024,0.063,0.043c0.018,0.019,0.023,0.044,0.042,0.063c0.02,0.02,0.046,0.025,0.065,0.043
		c0.019,0.021,0.023,0.045,0.042,0.064c0.019,0.019,0.045,0.024,0.064,0.043c0.018,0.018,0.024,0.044,0.041,0.061
		c0.02,0.02,0.044,0.025,0.065,0.043c0.018,0.021,0.023,0.045,0.042,0.064c0.019,0.018,0.042,0.023,0.061,0.04
		c0.02,0.021,0.025,0.048,0.044,0.066c0.02,0.02,0.046,0.025,0.065,0.043c0.018,0.02,0.023,0.044,0.042,0.063
		c0.017,0.018,0.044,0.024,0.064,0.042c0.018,0.019,0.024,0.046,0.041,0.063c0.02,0.02,0.044,0.024,0.065,0.043
		c0.018,0.02,0.023,0.044,0.041,0.063c0.019,0.019,0.044,0.023,0.065,0.042c0.018,0.02,0.023,0.046,0.042,0.064
		c0.02,0.02,0.046,0.025,0.065,0.043c0.018,0.02,0.023,0.044,0.042,0.063c0.017,0.018,0.044,0.024,0.063,0.042
		c0.018,0.019,0.023,0.044,0.042,0.063c0.018,0.02,0.044,0.025,0.065,0.043c0.018,0.019,0.023,0.045,0.041,0.064
		c0.021,0.019,0.046,0.024,0.065,0.042c0.018,0.02,0.023,0.044,0.042,0.063c0.02,0.02,0.044,0.022,0.063,0.042
		c0.017,0.02,0.023,0.044,0.042,0.063c0.019,0.019,0.044,0.023,0.063,0.042c0.018,0.02,0.024,0.046,0.044,0.064
		c0.018,0.02,0.044,0.023,0.062,0.043c0.019,0.019,0.025,0.045,0.044,0.064c0.019,0.019,0.046,0.024,0.065,0.042
		c0.018,0.02,0.023,0.044,0.041,0.063c0.021,0.02,0.045,0.024,0.064,0.042c0.017,0.02,0.023,0.044,0.042,0.063
		c0.019,0.019,0.044,0.023,0.063,0.042c0.018,0.02,0.024,0.046,0.044,0.064c0.018,0.02,0.044,0.023,0.062,0.043
		c0.019,0.019,0.025,0.045,0.044,0.064c0.019,0.019,0.044,0.023,0.065,0.042c0.018,0.02,0.022,0.044,0.041,0.063
		c0.019,0.02,0.044,0.024,0.064,0.042c0.017,0.02,0.023,0.046,0.042,0.065c0.019,0.018,0.046,0.024,0.065,0.042
		c0.018,0.019,0.023,0.044,0.042,0.063c0.018,0.02,0.044,0.025,0.063,0.043c0.017,0.019,0.023,0.044,0.042,0.063
		c0.018,0.02,0.044,0.025,0.065,0.042c0.018,0.02,0.023,0.046,0.041,0.065c0.019,0.02,0.044,0.022,0.064,0.042
		c0.017,0.02,0.023,0.044,0.041,0.063c0.02,0.019,0.047,0.024,0.064,0.042c0.02,0.02,0.024,0.044,0.043,0.063
		c0.019,0.02,0.045,0.025,0.064,0.044c0.019,0.018,0.023,0.044,0.042,0.063c0.019,0.02,0.044,0.024,0.063,0.042
		c0.02,0.02,0.024,0.044,0.043,0.063c0.018,0.02,0.044,0.023,0.063,0.043c0.019,0.019,0.025,0.045,0.043,0.064
		c0.019,0.019,0.044,0.023,0.064,0.042c0.018,0.019,0.024,0.046,0.043,0.064c0.019,0.02,0.045,0.025,0.066,0.042
		c0.016,0.02,0.021,0.044,0.04,0.062c0.019,0.02,0.045,0.026,0.064,0.043c0.018,0.02,0.024,0.045,0.043,0.064
		c0.018,0.02,0.044,0.023,0.063,0.043c0.019,0.019,0.025,0.045,0.043,0.064c0.019,0.019,0.044,0.023,0.064,0.042
		c0.018,0.019,0.024,0.044,0.042,0.063c0.02,0.02,0.045,0.025,0.064,0.044c0.019,0.018,0.024,0.044,0.044,0.063
		c0.018,0.02,0.044,0.024,0.063,0.042c0.018,0.02,0.024,0.044,0.043,0.063c0.018,0.02,0.044,0.023,0.062,0.043
		c0.019,0.019,0.025,0.045,0.044,0.064c0.019,0.019,0.047,0.024,0.066,0.044c0.018,0.019,0.022,0.044,0.041,0.061
		c0.019,0.02,0.044,0.024,0.063,0.044c0.018,0.018,0.024,0.044,0.043,0.062c0.019,0.02,0.044,0.024,0.063,0.043
		c0.018,0.02,0.023,0.045,0.044,0.064c0.018,0.02,0.044,0.024,0.064,0.043c0.017,0.019,0.023,0.044,0.041,0.063
		s0.044,0.023,0.062,0.041c0.019,0.021,0.023,0.047,0.044,0.065c0.019,0.02,0.045,0.025,0.064,0.044
		c0.018,0.018,0.024,0.044,0.041,0.062c0.021,0.02,0.046,0.026,0.065,0.043c0.018,0.02,0.023,0.045,0.044,0.064
		c0.018,0.02,0.044,0.024,0.063,0.043c0.018,0.019,0.024,0.044,0.043,0.063c0.018,0.019,0.044,0.023,0.062,0.043
		c0.019,0.02,0.024,0.045,0.044,0.063c0.02,0.02,0.046,0.025,0.066,0.044c0.017,0.02,0.022,0.044,0.041,0.062
		c0.019,0.02,0.044,0.024,0.063,0.043c0.018,0.02,0.023,0.044,0.042,0.063c0.019,0.018,0.042,0.022,0.061,0.04
		c0.02,0.021,0.025,0.048,0.044,0.066c0.02,0.019,0.046,0.025,0.065,0.043c0.018,0.02,0.023,0.045,0.042,0.063
		c0.019,0.02,0.045,0.025,0.064,0.044c0.018,0.018,0.024,0.044,0.041,0.062c0.021,0.02,0.046,0.026,0.065,0.043
		c0.018,0.02,0.023,0.044,0.042,0.063c0.019,0.018,0.042,0.022,0.061,0.04c0.02,0.021,0.025,0.048,0.044,0.066
		c0.02,0.019,0.046,0.025,0.065,0.043c0.018,0.02,0.023,0.044,0.042,0.063c0.017,0.018,0.044,0.024,0.064,0.042
		c0.018,0.019,0.024,0.046,0.041,0.063c0.021,0.02,0.047,0.026,0.065,0.043c0.019,0.02,0.023,0.044,0.042,0.063
		c0.019,0.019,0.044,0.022,0.063,0.042c0.018,0.02,0.023,0.044,0.042,0.063c0.02,0.02,0.046,0.024,0.065,0.042
		c0.018,0.02,0.023,0.046,0.042,0.065c0.017,0.017,0.044,0.022,0.061,0.04c0.02,0.021,0.024,0.048,0.044,0.065
		c0.02,0.02,0.046,0.026,0.065,0.043c0.018,0.02,0.023,0.044,0.041,0.063c0.021,0.019,0.046,0.024,0.065,0.042
		c0.018,0.02,0.023,0.044,0.042,0.063c0.02,0.02,0.044,0.022,0.063,0.042c0.017,0.02,0.023,0.046,0.044,0.064
		c0.017,0.019,0.044,0.023,0.061,0.043c0.02,0.019,0.025,0.045,0.044,0.063c0.02,0.02,0.046,0.026,0.065,0.043
		c0.018,0.02,0.023,0.044,0.041,0.063c0.019,0.019,0.044,0.022,0.065,0.042c0.018,0.02,0.023,0.044,0.041,0.063
		c0.021,0.019,0.045,0.024,0.064,0.042c0.017,0.02,0.023,0.044,0.042,0.063c0.019,0.019,0.045,0.024,0.065,0.042
		c0.017,0.019,0.023,0.046,0.042,0.064c0.018,0.02,0.044,0.023,0.062,0.041c0.019,0.021,0.025,0.047,0.044,0.066
		c0.019,0.019,0.044,0.022,0.063,0.042s0.024,0.044,0.043,0.063c0.02,0.019,0.047,0.024,0.066,0.044
		c0.018,0.019,0.022,0.044,0.041,0.062c0.019,0.019,0.044,0.023,0.063,0.042c0.018,0.019,0.024,0.046,0.044,0.064
		c0.018,0.02,0.044,0.025,0.063,0.042c0.018,0.02,0.024,0.044,0.042,0.063c0.018,0.02,0.044,0.023,0.062,0.042
		c0.019,0.02,0.025,0.046,0.044,0.065c0.02,0.019,0.047,0.024,0.066,0.044c0.018,0.019,0.022,0.044,0.041,0.062
		c0.019,0.019,0.045,0.024,0.065,0.042c0.017,0.019,0.023,0.046,0.042,0.064c0.019,0.02,0.044,0.025,0.063,0.042
		c0.02,0.02,0.024,0.044,0.042,0.063c0.019,0.02,0.044,0.024,0.063,0.042c0.019,0.02,0.024,0.044,0.043,0.063
		c0.019,0.02,0.044,0.024,0.064,0.043c0.018,0.019,0.024,0.045,0.042,0.064c0.019,0.019,0.044,0.023,0.063,0.042
		c0.018,0.019,0.024,0.046,0.044,0.064c0.018,0.02,0.044,0.025,0.063,0.042c0.018,0.02,0.022,0.044,0.042,0.063
		c0.018,0.02,0.044,0.024,0.065,0.042c0.017,0.02,0.023,0.044,0.041,0.063c0.018,0.02,0.044,0.023,0.063,0.043
		c0.019,0.019,0.025,0.045,0.043,0.064c0.019,0.019,0.044,0.023,0.064,0.042c0.018,0.019,0.024,0.046,0.043,0.064
		c0.019,0.02,0.045,0.025,0.064,0.042c0.018,0.02,0.024,0.044,0.042,0.063c0.018,0.02,0.044,0.024,0.063,0.042
		c0.018,0.02,0.024,0.044,0.043,0.063c0.018,0.02,0.044,0.023,0.062,0.043c0.019,0.019,0.024,0.045,0.044,0.064
		c0.02,0.019,0.046,0.024,0.066,0.044c0.017,0.019,0.022,0.044,0.041,0.061c0.019,0.018,0.042,0.024,0.062,0.042
		c0.019,0.02,0.024,0.046,0.044,0.065c0.019,0.02,0.044,0.023,0.063,0.042c0.018,0.02,0.023,0.044,0.042,0.063
		c0.02,0.02,0.046,0.024,0.066,0.044c0.018,0.02,0.024,0.044,0.042,0.062c0.019,0.019,0.044,0.025,0.064,0.043
		c0.018,0.02,0.024,0.045,0.043,0.063c0.019,0.02,0.044,0.024,0.063,0.043c0.018,0.019,0.023,0.044,0.043,0.063
		c0.019,0.019,0.042,0.024,0.061,0.041c0.02,0.021,0.025,0.047,0.044,0.066c0.02,0.02,0.046,0.024,0.064,0.043
		c0.018,0.019,0.023,0.045,0.043,0.064c0.019,0.019,0.044,0.023,0.063,0.042c0.019,0.019,0.023,0.044,0.042,0.063
		c0.021,0.02,0.047,0.025,0.066,0.044c0.018,0.02,0.022,0.044,0.042,0.062c0.019,0.02,0.044,0.024,0.063,0.043
		c0.018,0.02,0.023,0.044,0.042,0.063c0.02,0.019,0.046,0.024,0.064,0.042c0.018,0.02,0.023,0.046,0.043,0.064
		c0.017,0.019,0.044,0.023,0.063,0.043c0.019,0.019,0.025,0.045,0.042,0.063c0.02,0.02,0.044,0.024,0.064,0.043
		c0.018,0.019,0.023,0.044,0.041,0.063c0.021,0.02,0.047,0.025,0.065,0.043c0.019,0.02,0.023,0.044,0.042,0.063
		c0.02,0.019,0.044,0.022,0.063,0.04c0.017,0.021,0.023,0.048,0.044,0.066c0.017,0.019,0.044,0.023,0.061,0.043
		c0.02,0.019,0.025,0.045,0.044,0.063c0.02,0.02,0.046,0.025,0.064,0.043c0.018,0.019,0.023,0.044,0.041,0.063
		c0.021,0.02,0.046,0.025,0.065,0.043c0.018,0.02,0.023,0.044,0.042,0.063c0.02,0.018,0.042,0.022,0.062,0.04
		c0.019,0.021,0.025,0.048,0.044,0.066s0.046,0.025,0.065,0.043c0.018,0.019,0.023,0.045,0.042,0.063
		c0.02,0.02,0.044,0.024,0.063,0.043c0.019,0.019,0.023,0.044,0.042,0.063c0.019,0.02,0.044,0.024,0.063,0.043
		c0.02,0.02,0.024,0.044,0.042,0.063c0.021,0.019,0.047,0.024,0.066,0.044c0.018,0.019,0.022,0.044,0.041,0.062
		c0.019,0.019,0.046,0.024,0.065,0.042c0.018,0.02,0.023,0.046,0.042,0.064c0.018,0.018,0.044,0.023,0.062,0.041
		c0.019,0.021,0.024,0.047,0.044,0.065c0.019,0.02,0.044,0.024,0.063,0.043c0.02,0.02,0.024,0.044,0.042,0.063
		c0.021,0.019,0.047,0.024,0.066,0.044c0.018,0.019,0.022,0.044,0.041,0.062c0.019,0.019,0.044,0.022,0.063,0.042
		c0.018,0.02,0.024,0.046,0.044,0.064c0.018,0.019,0.044,0.025,0.064,0.043c0.003,0.004,0.006,0.01,0.009,0.016
		C28.878,61.841,30.419,62,32,62C48.567,62,62,48.565,62,32z"/>
	<path fill="#67809F" d="M35.182,32l13.947-13.948c0.879-0.879,0.879-2.303,0-3.182s-2.302-0.879-3.181,0L32,28.818L18.051,14.87
		c-0.879-0.879-2.303-0.879-3.182,0s-0.879,2.303,0,3.182L28.818,32L14.87,45.948c-0.879,0.879-0.879,2.302,0,3.181
		c0.439,0.439,1.017,0.659,1.591,0.659c0.577,0,1.151-0.22,1.59-0.659L32,35.182l13.948,13.947c0.439,0.439,1.016,0.659,1.59,0.659
		c0.578,0,1.151-0.22,1.591-0.659c0.879-0.879,0.879-2.302,0-3.181L35.182,32z"/>
</g>
</svg>
