<?xml version="1.0" encoding="utf-8"?>
<!-- Generator: Adobe Illustrator 16.0.0, SVG Export Plug-In . SVG Version: 6.00 Build 0)  -->
<!DOCTYPE svg PUBLIC "-//W3C//DTD SVG 1.1//EN" "http://www.w3.org/Graphics/SVG/1.1/DTD/svg11.dtd">
<svg version="1.1" id="Livello_1" xmlns="http://www.w3.org/2000/svg" xmlns:xlink="http://www.w3.org/1999/xlink" x="0px" y="0px"
	 width="64px" height="64px" viewBox="0 0 64 64" enable-background="new 0 0 64 64" xml:space="preserve">
<g>
	<path fill="#445261" d="M62,32c0,16.565-13.435,30-30,30C15.433,62,2,48.565,2,32C2,15.433,15.433,2,32,2C48.565,2,62,15.433,62,32
		z"/>
	<path opacity="0.35" d="M62,32c0-0.996-0.054-1.978-0.149-2.949c-0.012-0.012-0.024-0.025-0.038-0.038
		c-0.037-0.04-0.073-0.076-0.111-0.113c-0.033-0.035-0.069-0.07-0.105-0.104c-0.035-0.037-0.069-0.072-0.105-0.107
		c-0.035-0.035-0.07-0.07-0.105-0.105c-0.035-0.037-0.07-0.072-0.107-0.105c-0.033-0.035-0.066-0.07-0.103-0.104
		c-0.036-0.037-0.071-0.073-0.107-0.108c-0.036-0.038-0.072-0.073-0.11-0.108c-0.032-0.035-0.065-0.069-0.102-0.101
		c-0.035-0.038-0.071-0.075-0.109-0.11c-0.032-0.034-0.064-0.067-0.099-0.1c-0.037-0.04-0.074-0.076-0.114-0.114
		c-0.033-0.035-0.066-0.069-0.103-0.103c-0.034-0.037-0.069-0.072-0.108-0.107c-0.033-0.037-0.068-0.07-0.104-0.105
		s-0.07-0.07-0.105-0.105c-0.035-0.037-0.07-0.07-0.107-0.105c-0.035-0.038-0.071-0.075-0.109-0.11
		c-0.032-0.034-0.066-0.067-0.1-0.1c-0.035-0.038-0.072-0.073-0.108-0.108c-0.035-0.038-0.07-0.073-0.108-0.108
		c-0.033-0.035-0.067-0.069-0.103-0.103c-0.035-0.037-0.07-0.073-0.106-0.108c-0.035-0.035-0.069-0.07-0.105-0.105
		c-0.036-0.037-0.07-0.072-0.107-0.105c-0.035-0.037-0.07-0.072-0.107-0.107c-0.033-0.035-0.066-0.069-0.103-0.103
		c-0.036-0.04-0.073-0.076-0.112-0.113c-0.032-0.034-0.064-0.066-0.098-0.1c-0.037-0.037-0.072-0.073-0.11-0.108
		c-0.035-0.037-0.068-0.072-0.105-0.107c-0.035-0.035-0.07-0.07-0.105-0.105c-0.033-0.035-0.069-0.07-0.104-0.104
		c-0.037-0.038-0.075-0.075-0.113-0.111c-0.032-0.035-0.067-0.069-0.102-0.101c-0.034-0.037-0.068-0.072-0.104-0.105
		c-0.035-0.038-0.071-0.073-0.107-0.108c-0.035-0.037-0.07-0.07-0.107-0.105c-0.033-0.037-0.068-0.072-0.105-0.107
		c-0.034-0.035-0.068-0.07-0.105-0.105c-0.033-0.035-0.068-0.07-0.104-0.104c-0.037-0.038-0.073-0.075-0.11-0.11
		c-0.034-0.037-0.068-0.07-0.105-0.104c-0.033-0.035-0.066-0.07-0.103-0.104c-0.036-0.037-0.071-0.073-0.107-0.108
		c-0.034-0.035-0.069-0.07-0.104-0.104c-0.037-0.038-0.071-0.073-0.11-0.11c-0.033-0.035-0.068-0.07-0.104-0.104
		c-0.035-0.037-0.07-0.072-0.108-0.107c-0.034-0.035-0.067-0.069-0.103-0.103c-0.035-0.037-0.07-0.073-0.107-0.108
		c-0.035-0.037-0.069-0.07-0.105-0.105c-0.034-0.037-0.07-0.072-0.106-0.105c-0.033-0.037-0.067-0.07-0.103-0.104
		c-0.037-0.038-0.073-0.076-0.111-0.111c-0.035-0.037-0.068-0.07-0.105-0.104c-0.033-0.037-0.067-0.07-0.104-0.104
		c-0.035-0.037-0.071-0.072-0.107-0.107c-0.035-0.037-0.068-0.072-0.105-0.107c-0.035-0.035-0.07-0.07-0.105-0.105
		c-0.035-0.037-0.07-0.07-0.107-0.105c-0.033-0.037-0.068-0.072-0.104-0.105c-0.037-0.038-0.073-0.075-0.111-0.111
		c-0.033-0.034-0.065-0.067-0.102-0.1c-0.035-0.037-0.069-0.073-0.106-0.108c-0.035-0.037-0.07-0.07-0.106-0.105
		c-0.034-0.037-0.069-0.072-0.105-0.107s-0.069-0.07-0.106-0.105c-0.034-0.037-0.069-0.072-0.106-0.105
		c-0.035-0.037-0.069-0.072-0.105-0.107c-0.035-0.035-0.07-0.07-0.105-0.105s-0.07-0.07-0.105-0.105
		c-0.035-0.037-0.07-0.072-0.108-0.107c-0.033-0.037-0.069-0.07-0.104-0.105c-0.034-0.037-0.07-0.072-0.107-0.107
		c-0.034-0.037-0.069-0.07-0.104-0.105c-0.035-0.037-0.07-0.07-0.107-0.105c-0.033-0.037-0.068-0.07-0.104-0.105
		c-0.035-0.037-0.07-0.072-0.106-0.107c-0.034-0.035-0.068-0.069-0.103-0.103c-0.037-0.038-0.075-0.076-0.113-0.113
		c-0.035-0.037-0.07-0.07-0.105-0.105c-0.033-0.034-0.067-0.067-0.103-0.101c-0.035-0.037-0.07-0.073-0.106-0.108
		c-0.036-0.037-0.072-0.072-0.109-0.107c-0.033-0.035-0.066-0.069-0.103-0.103c-0.034-0.037-0.07-0.073-0.106-0.108
		c-0.035-0.035-0.07-0.07-0.105-0.105c-0.035-0.037-0.07-0.07-0.107-0.105c-0.033-0.037-0.068-0.072-0.105-0.107
		c-0.033-0.035-0.068-0.07-0.104-0.104c-0.035-0.038-0.072-0.075-0.108-0.11c-0.034-0.035-0.069-0.07-0.104-0.104
		c-0.035-0.037-0.07-0.07-0.107-0.105c-0.033-0.037-0.068-0.072-0.105-0.107c-0.034-0.035-0.068-0.07-0.104-0.105
		c-0.036-0.037-0.071-0.072-0.107-0.105c-0.035-0.037-0.068-0.072-0.105-0.107c-0.035-0.035-0.068-0.07-0.105-0.105
		c-0.035-0.037-0.07-0.072-0.106-0.105c-0.034-0.037-0.069-0.072-0.105-0.105c-0.036-0.037-0.07-0.072-0.107-0.107
		c-0.035-0.037-0.068-0.072-0.105-0.107c-0.035-0.035-0.07-0.07-0.105-0.105c-0.035-0.037-0.07-0.07-0.106-0.105
		c-0.034-0.037-0.069-0.072-0.106-0.107c-0.035-0.037-0.069-0.07-0.106-0.105c-0.033-0.037-0.067-0.07-0.104-0.105
		c-0.034-0.037-0.07-0.072-0.106-0.107c-0.035-0.037-0.07-0.072-0.107-0.105c-0.034-0.037-0.068-0.072-0.105-0.105
		c-0.034-0.037-0.068-0.072-0.104-0.107c-0.035-0.037-0.072-0.072-0.108-0.107c-0.034-0.035-0.067-0.069-0.103-0.103
		c-0.036-0.038-0.07-0.073-0.107-0.108c-0.035-0.037-0.07-0.072-0.107-0.107c-0.033-0.035-0.068-0.069-0.104-0.103
		c-0.035-0.037-0.07-0.073-0.106-0.108c-0.036-0.037-0.07-0.072-0.107-0.105c-0.035-0.037-0.068-0.072-0.105-0.107
		c-0.035-0.035-0.069-0.07-0.105-0.105c-0.033-0.035-0.067-0.069-0.103-0.103c-0.037-0.038-0.073-0.076-0.113-0.113
		c-0.033-0.035-0.066-0.069-0.103-0.101c-0.034-0.038-0.07-0.073-0.106-0.108c-0.035-0.035-0.069-0.07-0.105-0.105
		c-0.525-0.552-1.261-0.902-2.078-0.902h-28.75c-1.58,0-2.875,1.295-2.875,2.874v28.751c0,0.817,0.351,1.553,0.903,2.078
		c0.035,0.036,0.07,0.07,0.107,0.105c0.034,0.036,0.069,0.072,0.105,0.106c0.035,0.037,0.071,0.072,0.108,0.107
		c0.034,0.035,0.066,0.068,0.102,0.103c0.035,0.037,0.071,0.071,0.108,0.107c0.036,0.036,0.068,0.071,0.105,0.106
		c0.036,0.037,0.071,0.07,0.107,0.105c0.034,0.037,0.068,0.071,0.105,0.107c0.036,0.036,0.071,0.071,0.107,0.105
		c0.034,0.036,0.068,0.071,0.105,0.104c0.034,0.037,0.07,0.072,0.106,0.107c0.035,0.035,0.068,0.07,0.105,0.105
		c0.035,0.037,0.071,0.071,0.107,0.107c0.035,0.036,0.069,0.07,0.105,0.105c0.035,0.036,0.072,0.071,0.108,0.106
		c0.034,0.035,0.067,0.069,0.103,0.103c0.036,0.037,0.07,0.071,0.107,0.107c0.035,0.037,0.07,0.073,0.108,0.107
		c0.034,0.037,0.07,0.071,0.104,0.105c0.035,0.037,0.07,0.072,0.107,0.105c0.034,0.037,0.069,0.072,0.105,0.107
		c0.035,0.035,0.07,0.07,0.105,0.105c0.036,0.035,0.07,0.07,0.105,0.105c0.036,0.037,0.071,0.07,0.107,0.105
		c0.036,0.037,0.07,0.071,0.107,0.107c0.034,0.036,0.069,0.071,0.105,0.105c0.034,0.036,0.068,0.071,0.105,0.106
		c0.036,0.035,0.07,0.07,0.106,0.104c0.035,0.037,0.069,0.072,0.106,0.107c0.034,0.036,0.07,0.071,0.106,0.107
		c0.035,0.036,0.069,0.07,0.105,0.104c0.035,0.037,0.071,0.071,0.105,0.105c0.035,0.037,0.071,0.072,0.108,0.107
		c0.034,0.035,0.066,0.068,0.102,0.103c0.037,0.038,0.073,0.075,0.111,0.111c0.034,0.035,0.07,0.069,0.104,0.104
		c0.035,0.037,0.07,0.072,0.107,0.107c0.035,0.035,0.069,0.07,0.105,0.104c0.035,0.036,0.069,0.071,0.105,0.106
		c0.034,0.035,0.068,0.07,0.104,0.104c0.037,0.038,0.073,0.074,0.11,0.109c0.035,0.037,0.071,0.07,0.105,0.105
		c0.034,0.035,0.068,0.068,0.104,0.103c0.035,0.038,0.069,0.073,0.106,0.108c0.036,0.037,0.071,0.072,0.107,0.105
		c0.034,0.037,0.068,0.071,0.105,0.107c0.036,0.036,0.071,0.069,0.106,0.105c0.035,0.036,0.069,0.071,0.106,0.106
		c0.036,0.035,0.07,0.07,0.106,0.104c0.035,0.037,0.068,0.072,0.105,0.107c0.035,0.035,0.071,0.07,0.105,0.105
		c0.035,0.036,0.07,0.07,0.107,0.105c0.035,0.036,0.071,0.073,0.107,0.108c0.033,0.034,0.066,0.067,0.101,0.101
		c0.037,0.04,0.075,0.076,0.113,0.113c0.034,0.035,0.067,0.069,0.103,0.103c0.036,0.036,0.07,0.07,0.107,0.105
		c0.034,0.037,0.069,0.072,0.105,0.106c0.036,0.037,0.07,0.07,0.105,0.106c0.036,0.036,0.071,0.071,0.107,0.105
		c0.036,0.036,0.068,0.071,0.105,0.106c0.037,0.038,0.073,0.073,0.11,0.108c0.033,0.034,0.065,0.066,0.097,0.097
		c0.037,0.04,0.075,0.077,0.113,0.114c0.036,0.036,0.068,0.07,0.105,0.104c0.036,0.037,0.07,0.072,0.106,0.107
		c0.035,0.035,0.069,0.07,0.105,0.105c0.035,0.035,0.071,0.07,0.105,0.105c0.035,0.036,0.07,0.072,0.107,0.107
		c0.035,0.036,0.071,0.071,0.107,0.104c0.033,0.037,0.067,0.071,0.103,0.104c0.037,0.038,0.073,0.074,0.11,0.11
		c0.033,0.034,0.068,0.07,0.105,0.104c0.034,0.036,0.069,0.072,0.105,0.106c0.035,0.036,0.069,0.07,0.105,0.105
		c0.034,0.036,0.068,0.07,0.104,0.104c0.037,0.038,0.072,0.073,0.11,0.11c0.034,0.034,0.069,0.07,0.104,0.104
		c0.036,0.037,0.072,0.072,0.109,0.106c0.034,0.036,0.067,0.069,0.101,0.103c0.037,0.037,0.072,0.073,0.109,0.109
		c0.035,0.036,0.069,0.071,0.106,0.106c0.036,0.037,0.071,0.07,0.106,0.105c0.035,0.037,0.069,0.07,0.106,0.105
		c0.034,0.036,0.07,0.071,0.106,0.105c0.035,0.036,0.068,0.072,0.105,0.106c0.035,0.037,0.071,0.071,0.105,0.105
		c0.035,0.037,0.07,0.072,0.107,0.105c0.035,0.037,0.071,0.073,0.108,0.109c0.034,0.034,0.068,0.07,0.104,0.104
		c0.034,0.035,0.066,0.069,0.101,0.102c0.037,0.039,0.072,0.076,0.111,0.112c0.034,0.036,0.071,0.071,0.107,0.105
		c0.033,0.036,0.068,0.07,0.104,0.105c0.036,0.035,0.07,0.07,0.105,0.105c0.034,0.035,0.07,0.07,0.104,0.104
		c0.039,0.04,0.075,0.076,0.114,0.114c0.03,0.032,0.063,0.063,0.095,0.094c0.037,0.04,0.073,0.077,0.111,0.113
		c0.036,0.037,0.071,0.072,0.107,0.105c0.034,0.037,0.068,0.071,0.105,0.105c0.034,0.037,0.07,0.071,0.106,0.107
		c0.035,0.036,0.069,0.07,0.105,0.105c0.035,0.036,0.071,0.071,0.107,0.106c0.035,0.035,0.068,0.07,0.105,0.104
		c0.035,0.037,0.069,0.072,0.105,0.107c0.035,0.035,0.07,0.07,0.105,0.105c0.036,0.036,0.07,0.07,0.107,0.105
		c0.035,0.037,0.07,0.071,0.107,0.106c0.035,0.037,0.069,0.072,0.105,0.107c0.035,0.035,0.07,0.07,0.105,0.105
		c0.036,0.035,0.07,0.07,0.105,0.105c0.036,0.037,0.071,0.07,0.107,0.105c0.036,0.038,0.07,0.073,0.109,0.108
		c0.033,0.035,0.067,0.068,0.103,0.103c0.033,0.036,0.068,0.072,0.106,0.107c0.034,0.036,0.07,0.071,0.106,0.104
		c0.033,0.037,0.068,0.072,0.104,0.105c0.037,0.038,0.072,0.075,0.11,0.11c0.036,0.035,0.068,0.07,0.105,0.104
		c0.034,0.037,0.07,0.071,0.106,0.105c0.033,0.037,0.068,0.072,0.105,0.107c0.035,0.035,0.071,0.07,0.105,0.105
		c0.035,0.036,0.07,0.07,0.107,0.105c0.034,0.036,0.069,0.072,0.105,0.105c0.035,0.038,0.071,0.073,0.108,0.11
		c0.014,0.013,0.027,0.025,0.041,0.039C30.021,61.946,31.004,62,32,62C48.565,62,62,48.565,62,32z"/>
	<path fill="#D2527F" d="M44.938,19.063v25.875H19.063V19.063H44.938 M46.375,14.75h-28.75c-1.58,0-2.875,1.295-2.875,2.874v28.751
		c0,1.58,1.295,2.875,2.875,2.875h28.75c1.58,0,2.875-1.295,2.875-2.875V17.624C49.25,16.045,47.955,14.75,46.375,14.75
		L46.375,14.75z"/>
</g>
</svg>
