<?xml version="1.0" encoding="utf-8"?>
<!-- Generator: Adobe Illustrator 16.0.0, SVG Export Plug-In . SVG Version: 6.00 Build 0)  -->
<!DOCTYPE svg PUBLIC "-//W3C//DTD SVG 1.1//EN" "http://www.w3.org/Graphics/SVG/1.1/DTD/svg11.dtd">
<svg version="1.1" id="Livello_1" xmlns="http://www.w3.org/2000/svg" xmlns:xlink="http://www.w3.org/1999/xlink" x="0px" y="0px"
	 width="64px" height="64px" viewBox="0 0 64 64" enable-background="new 0 0 64 64" xml:space="preserve">
<g>
	<path fill="#445261" d="M62,32c0,16.565-13.433,30-30,30C15.432,62,2,48.565,2,32C2,15.432,15.432,2,32,2C48.567,2,62,15.432,62,32
		z"/>
	<path opacity="0.35" d="M60.585,41.104c-0.004-0.005-0.006-0.008-0.01-0.011c-0.034-0.039-0.069-0.068-0.105-0.105
		c-0.035-0.041-0.073-0.07-0.108-0.106c-0.033-0.04-0.069-0.069-0.104-0.104c-0.034-0.041-0.071-0.071-0.107-0.108
		c-0.033-0.041-0.07-0.068-0.104-0.105c-0.035-0.041-0.073-0.07-0.108-0.105c-0.031-0.041-0.067-0.069-0.103-0.105
		c-0.035-0.041-0.073-0.07-0.108-0.108c-0.034-0.041-0.071-0.07-0.105-0.105c-0.035-0.041-0.071-0.069-0.104-0.105
		c-0.035-0.04-0.071-0.07-0.108-0.105c-0.033-0.041-0.071-0.071-0.106-0.108c-0.034-0.041-0.071-0.07-0.105-0.105
		c-0.035-0.041-0.073-0.07-0.108-0.105c-0.033-0.041-0.069-0.07-0.104-0.105c-0.034-0.041-0.071-0.07-0.106-0.107
		c-0.034-0.039-0.069-0.068-0.105-0.106c-0.035-0.04-0.071-0.07-0.106-0.105c-0.033-0.041-0.071-0.07-0.106-0.105
		c-0.036-0.041-0.071-0.071-0.107-0.108c-0.033-0.039-0.068-0.067-0.104-0.103c-0.035-0.041-0.07-0.072-0.106-0.108
		c-0.033-0.041-0.071-0.07-0.106-0.106c-0.034-0.04-0.071-0.069-0.106-0.106c-0.034-0.039-0.069-0.069-0.105-0.106
		c-0.035-0.04-0.071-0.069-0.106-0.105c-0.033-0.041-0.071-0.07-0.106-0.105c-0.034-0.041-0.071-0.07-0.106-0.107
		c-0.034-0.039-0.069-0.069-0.105-0.106c-0.035-0.038-0.07-0.067-0.104-0.104c-0.035-0.042-0.071-0.072-0.108-0.108
		c-0.034-0.04-0.071-0.069-0.106-0.104c-0.034-0.041-0.069-0.071-0.105-0.108c-0.035-0.038-0.07-0.067-0.103-0.103
		c-0.037-0.041-0.073-0.073-0.11-0.109c-0.034-0.04-0.071-0.069-0.106-0.106c-0.032-0.039-0.069-0.068-0.105-0.105
		c-0.035-0.039-0.07-0.07-0.104-0.106c-0.035-0.04-0.071-0.07-0.108-0.105c-0.033-0.041-0.071-0.07-0.106-0.105
		c-0.032-0.041-0.069-0.07-0.105-0.108c-0.035-0.038-0.07-0.067-0.104-0.104c-0.035-0.04-0.071-0.069-0.106-0.105
		c-0.035-0.041-0.073-0.072-0.108-0.11c-0.034-0.039-0.069-0.067-0.105-0.104c-0.035-0.039-0.07-0.068-0.104-0.104
		c-0.035-0.04-0.071-0.071-0.106-0.107c-0.035-0.039-0.071-0.07-0.108-0.105c-0.032-0.041-0.069-0.07-0.105-0.105
		c-0.033-0.041-0.07-0.07-0.104-0.105c-0.035-0.041-0.071-0.073-0.108-0.108c-0.033-0.041-0.071-0.07-0.106-0.107
		c-0.032-0.039-0.069-0.068-0.105-0.105c-0.035-0.039-0.07-0.068-0.104-0.106c-0.035-0.04-0.071-0.069-0.106-0.105
		c-0.035-0.039-0.073-0.07-0.108-0.105c-0.032-0.041-0.069-0.07-0.104-0.105c-0.035-0.041-0.072-0.072-0.108-0.108
		c-0.033-0.04-0.069-0.067-0.104-0.104c-0.035-0.041-0.071-0.072-0.108-0.107c-0.032-0.041-0.069-0.07-0.104-0.105
		c-0.035-0.041-0.072-0.07-0.108-0.108c-0.033-0.04-0.069-0.067-0.104-0.104c-0.035-0.04-0.071-0.07-0.106-0.107
		c-0.034-0.041-0.071-0.07-0.107-0.105c-0.033-0.041-0.07-0.07-0.104-0.106c-0.035-0.04-0.071-0.071-0.106-0.107
		c-0.035-0.041-0.073-0.07-0.108-0.107c-0.032-0.039-0.069-0.068-0.104-0.104c-0.033-0.041-0.072-0.07-0.106-0.106
		c-0.035-0.04-0.071-0.069-0.106-0.107s-0.069-0.068-0.104-0.105c-0.036-0.04-0.073-0.07-0.109-0.107
		c-0.033-0.039-0.07-0.068-0.104-0.104c-0.035-0.041-0.071-0.072-0.108-0.108c-0.033-0.039-0.067-0.068-0.103-0.104
		c-0.036-0.042-0.073-0.072-0.109-0.109c-0.033-0.04-0.068-0.067-0.103-0.103c-0.035-0.042-0.073-0.072-0.108-0.109
		c-0.035-0.041-0.071-0.071-0.106-0.107c-0.034-0.039-0.071-0.068-0.105-0.104c-0.033-0.04-0.072-0.069-0.106-0.106
		c-0.033-0.041-0.071-0.07-0.106-0.106c-0.033-0.04-0.069-0.07-0.106-0.107c-0.034-0.04-0.071-0.069-0.104-0.105
		c-0.034-0.04-0.071-0.069-0.107-0.106c-0.035-0.041-0.071-0.071-0.106-0.107c-0.035-0.039-0.069-0.068-0.104-0.104
		c-0.036-0.042-0.073-0.072-0.109-0.109c-0.033-0.04-0.07-0.067-0.103-0.104c-0.035-0.041-0.073-0.072-0.11-0.109
		c-0.033-0.039-0.067-0.068-0.103-0.104c-0.036-0.042-0.073-0.072-0.109-0.109c-0.031-0.039-0.068-0.067-0.103-0.103
		c-0.035-0.042-0.073-0.072-0.108-0.108c-0.033-0.04-0.069-0.07-0.104-0.106c-0.036-0.041-0.073-0.071-0.107-0.106
		c-0.033-0.039-0.07-0.068-0.104-0.105c-0.035-0.041-0.073-0.072-0.108-0.109c-0.035-0.04-0.069-0.068-0.104-0.104
		c-0.036-0.041-0.071-0.071-0.106-0.106c-0.034-0.04-0.069-0.069-0.105-0.106c-0.035-0.041-0.073-0.072-0.108-0.108
		c-0.035-0.04-0.069-0.069-0.104-0.106c-0.036-0.04-0.071-0.068-0.106-0.104c-0.034-0.04-0.071-0.07-0.107-0.107
		c-0.033-0.04-0.071-0.069-0.104-0.105c-0.033-0.04-0.071-0.069-0.106-0.105c-0.035-0.042-0.073-0.072-0.109-0.109
		c-0.031-0.04-0.07-0.069-0.103-0.104c-0.035-0.04-0.072-0.069-0.104-0.105c-0.035-0.041-0.073-0.071-0.108-0.107
		c-0.036-0.041-0.073-0.071-0.108-0.108c-0.032-0.04-0.071-0.069-0.105-0.105c-0.033-0.039-0.068-0.068-0.103-0.103
		c-0.035-0.042-0.071-0.073-0.108-0.109c-0.036-0.041-0.071-0.07-0.106-0.107c-0.034-0.04-0.071-0.069-0.105-0.105
		c-0.035-0.04-0.072-0.069-0.106-0.105c-0.033-0.04-0.071-0.069-0.106-0.106c-0.035-0.041-0.071-0.071-0.106-0.107
		c-0.034-0.04-0.069-0.069-0.105-0.106c-0.035-0.041-0.072-0.07-0.108-0.106c-0.031-0.039-0.069-0.068-0.104-0.104
		c-0.033-0.041-0.071-0.07-0.106-0.107c-0.034-0.04-0.069-0.07-0.105-0.107c-0.035-0.041-0.072-0.07-0.108-0.106
		c-0.031-0.039-0.067-0.068-0.104-0.104c-0.033-0.041-0.071-0.07-0.106-0.106c-0.034-0.041-0.069-0.071-0.105-0.108
		c-0.035-0.04-0.072-0.068-0.104-0.104c-0.035-0.04-0.071-0.07-0.108-0.106c-0.035-0.041-0.071-0.071-0.106-0.107
		c-0.034-0.039-0.069-0.069-0.105-0.105c-0.035-0.041-0.07-0.07-0.104-0.106c-0.035-0.04-0.071-0.069-0.108-0.106
		c-0.035-0.042-0.071-0.071-0.108-0.108c-0.032-0.04-0.067-0.068-0.104-0.104c-0.035-0.041-0.07-0.07-0.104-0.107
		c-0.035-0.04-0.073-0.07-0.108-0.107c-0.035-0.04-0.071-0.069-0.106-0.105c-0.034-0.04-0.069-0.069-0.105-0.105
		c-0.035-0.041-0.07-0.07-0.106-0.107c-0.033-0.04-0.069-0.069-0.104-0.105c-0.035-0.041-0.071-0.07-0.108-0.106
		c-0.032-0.04-0.069-0.069-0.105-0.106c-0.035-0.041-0.072-0.071-0.106-0.108c-0.033-0.04-0.071-0.069-0.106-0.105
		c-0.033-0.04-0.069-0.068-0.103-0.104c-0.036-0.042-0.073-0.073-0.109-0.109c-0.035-0.04-0.07-0.069-0.104-0.105
		c-0.035-0.04-0.071-0.07-0.108-0.106c-0.033-0.041-0.069-0.07-0.104-0.105c-0.034-0.041-0.071-0.071-0.107-0.107
		c-0.035-0.04-0.07-0.069-0.104-0.105c-0.035-0.041-0.071-0.071-0.108-0.107c-0.035-0.041-0.071-0.07-0.106-0.106
		c-0.032-0.04-0.069-0.069-0.104-0.104c-0.032-0.04-0.071-0.07-0.105-0.108c-0.035-0.04-0.071-0.071-0.108-0.107
		c-0.033-0.04-0.069-0.068-0.104-0.103c-0.034-0.041-0.071-0.071-0.106-0.107c-0.034-0.041-0.071-0.071-0.107-0.108
		c-0.033-0.039-0.069-0.067-0.104-0.103c-0.035-0.041-0.071-0.071-0.108-0.108c-0.032-0.041-0.069-0.07-0.105-0.106
		c-0.033-0.039-0.07-0.069-0.104-0.105c-0.035-0.041-0.071-0.07-0.106-0.106c-0.035-0.04-0.071-0.07-0.108-0.107
		c-0.032-0.041-0.069-0.07-0.105-0.105c-0.033-0.04-0.07-0.07-0.104-0.106c-0.035-0.041-0.071-0.07-0.106-0.105
		c-0.035-0.04-0.071-0.07-0.106-0.107c-0.034-0.041-0.071-0.071-0.107-0.106c-0.033-0.04-0.07-0.069-0.104-0.105
		c-0.035-0.041-0.071-0.071-0.106-0.107c-0.035-0.04-0.071-0.07-0.106-0.107c-0.034-0.04-0.071-0.07-0.107-0.105
		c-0.033-0.04-0.07-0.069-0.104-0.105c-0.035-0.042-0.071-0.072-0.108-0.108c-0.033-0.039-0.069-0.068-0.104-0.105
		c-0.034-0.041-0.071-0.071-0.107-0.107c-0.033-0.039-0.07-0.068-0.104-0.104c-0.033-0.04-0.07-0.069-0.104-0.105
		c-0.033-0.041-0.071-0.072-0.108-0.108c-0.034-0.041-0.071-0.07-0.106-0.105c-0.032-0.04-0.071-0.07-0.105-0.107
		c-0.035-0.041-0.071-0.07-0.106-0.106c-0.035-0.039-0.069-0.069-0.104-0.105c-0.036-0.042-0.073-0.072-0.109-0.108
		c-0.033-0.039-0.07-0.067-0.103-0.104c-0.035-0.041-0.073-0.07-0.108-0.107c-0.033-0.04-0.069-0.069-0.104-0.106
		c-0.036-0.042-0.073-0.072-0.109-0.108c-0.033-0.039-0.068-0.067-0.103-0.103c-0.035-0.042-0.073-0.071-0.108-0.109
		c-0.035-0.04-0.071-0.07-0.106-0.107c-0.034-0.04-0.069-0.068-0.104-0.104c-0.034-0.04-0.071-0.071-0.107-0.107
		c-0.035-0.04-0.071-0.069-0.106-0.105c-0.033-0.04-0.069-0.07-0.104-0.106c-0.036-0.04-0.071-0.07-0.106-0.106
		c-0.034-0.04-0.073-0.071-0.107-0.107c-0.035-0.041-0.071-0.07-0.106-0.105c-0.035-0.04-0.069-0.069-0.104-0.105
		c-0.036-0.041-0.071-0.07-0.106-0.106c-0.034-0.041-0.073-0.071-0.107-0.107c-0.035-0.04-0.071-0.069-0.106-0.105
		c-0.033-0.04-0.069-0.069-0.104-0.106c-0.036-0.041-0.071-0.07-0.108-0.108c-0.032-0.039-0.071-0.069-0.105-0.105
		c-0.033-0.04-0.07-0.069-0.104-0.105c-0.033-0.041-0.071-0.07-0.106-0.107c-0.036-0.041-0.073-0.071-0.108-0.108
		c-0.032-0.039-0.067-0.067-0.104-0.104c-0.035-0.041-0.072-0.071-0.108-0.109c-0.035-0.04-0.069-0.068-0.104-0.105
		c-0.036-0.04-0.071-0.07-0.106-0.106c-0.034-0.04-0.069-0.069-0.105-0.105c-0.035-0.041-0.073-0.071-0.108-0.107
		c-0.033-0.04-0.069-0.069-0.104-0.105c-0.036-0.041-0.071-0.07-0.106-0.107c-0.034-0.04-0.071-0.069-0.105-0.105
		c-0.035-0.04-0.073-0.071-0.108-0.107c-0.033-0.04-0.069-0.069-0.104-0.106c-0.035-0.04-0.071-0.069-0.104-0.105
		c-0.034-0.041-0.071-0.071-0.107-0.108c-0.035-0.041-0.073-0.07-0.108-0.106c-0.031-0.04-0.067-0.069-0.103-0.105
		c-0.035-0.041-0.073-0.071-0.11-0.109c-0.032-0.039-0.067-0.068-0.104-0.104c-0.035-0.04-0.072-0.069-0.106-0.106
		c-0.033-0.041-0.071-0.07-0.106-0.107c-0.035-0.04-0.071-0.07-0.106-0.105c-0.034-0.041-0.069-0.07-0.105-0.106
		c-0.035-0.04-0.072-0.07-0.108-0.107c-0.033-0.04-0.069-0.07-0.106-0.107c-0.034-0.039-0.069-0.067-0.104-0.104
		c-0.032-0.041-0.069-0.07-0.105-0.105c-0.033-0.041-0.07-0.071-0.106-0.107c-0.033-0.041-0.071-0.07-0.106-0.107
		c-0.033-0.04-0.069-0.068-0.103-0.104c-0.036-0.042-0.073-0.072-0.109-0.109c-0.035-0.041-0.072-0.07-0.106-0.106
		c-0.033-0.04-0.071-0.069-0.106-0.105c-0.035-0.04-0.071-0.069-0.106-0.106c-0.032-0.04-0.069-0.07-0.105-0.106
		c-0.035-0.041-0.072-0.071-0.108-0.107c-0.031-0.04-0.067-0.068-0.103-0.105c-0.035-0.04-0.073-0.07-0.108-0.107
		c-0.034-0.04-0.069-0.069-0.106-0.105c-0.034-0.04-0.069-0.069-0.104-0.106c-0.035-0.04-0.072-0.07-0.106-0.106
		c-0.035-0.04-0.073-0.07-0.108-0.106c-0.033-0.041-0.069-0.07-0.106-0.106c-0.034-0.04-0.069-0.07-0.104-0.106
		c-0.035-0.04-0.072-0.069-0.106-0.106c-0.035-0.04-0.073-0.07-0.108-0.106c-0.355-0.417-0.768-0.63-1.183-0.63
		c-0.543,0-1.085,0.359-1.497,1.073L12.556,45.327c-0.526,0.914-0.434,1.717,0.126,2.18c0.035,0.037,0.067,0.073,0.106,0.106
		c0.034,0.037,0.067,0.073,0.106,0.107c0.034,0.035,0.067,0.073,0.106,0.105c0.034,0.035,0.067,0.073,0.105,0.105
		c0.035,0.037,0.068,0.074,0.108,0.108c0.035,0.035,0.066,0.073,0.106,0.105c0.034,0.036,0.065,0.072,0.104,0.104
		c0.035,0.036,0.068,0.074,0.107,0.107c0.035,0.036,0.067,0.073,0.107,0.107c0.034,0.035,0.066,0.071,0.104,0.104
		c0.035,0.037,0.067,0.074,0.107,0.106c0.034,0.035,0.066,0.073,0.105,0.106c0.036,0.036,0.068,0.073,0.108,0.107
		c0.034,0.035,0.066,0.071,0.105,0.104c0.035,0.037,0.066,0.073,0.105,0.106c0.035,0.035,0.067,0.073,0.107,0.106
		c0.035,0.036,0.066,0.073,0.105,0.104c0.035,0.037,0.067,0.073,0.105,0.107c0.036,0.037,0.067,0.074,0.108,0.106
		c0.034,0.035,0.066,0.073,0.104,0.106c0.036,0.034,0.067,0.073,0.108,0.105c0.034,0.037,0.066,0.072,0.105,0.106
		c0.035,0.037,0.067,0.073,0.106,0.106c0.035,0.035,0.067,0.073,0.106,0.106c0.036,0.036,0.068,0.073,0.108,0.107
		c0.034,0.035,0.065,0.07,0.104,0.103c0.036,0.039,0.067,0.075,0.107,0.108c0.035,0.035,0.066,0.073,0.105,0.106
		c0.036,0.034,0.067,0.073,0.107,0.105c0.035,0.036,0.067,0.072,0.105,0.106c0.036,0.037,0.067,0.073,0.107,0.106
		c0.035,0.035,0.066,0.072,0.105,0.106c0.036,0.034,0.069,0.073,0.11,0.107c0.034,0.035,0.065,0.07,0.104,0.103
		c0.035,0.037,0.066,0.073,0.106,0.105c0.034,0.038,0.066,0.075,0.106,0.109c0.036,0.034,0.067,0.073,0.107,0.104
		c0.035,0.037,0.066,0.073,0.105,0.105c0.035,0.037,0.066,0.073,0.106,0.107c0.034,0.036,0.066,0.073,0.105,0.107
		c0.035,0.034,0.068,0.073,0.107,0.104c0.035,0.037,0.067,0.073,0.105,0.105c0.036,0.039,0.067,0.075,0.107,0.108
		c0.034,0.035,0.065,0.072,0.105,0.104c0.035,0.036,0.068,0.075,0.108,0.107c0.034,0.036,0.065,0.072,0.104,0.104
		c0.035,0.037,0.066,0.073,0.107,0.107c0.034,0.036,0.066,0.074,0.106,0.107c0.035,0.034,0.066,0.073,0.106,0.104
		c0.035,0.035,0.066,0.073,0.106,0.105c0.035,0.037,0.066,0.073,0.105,0.105c0.036,0.038,0.069,0.076,0.109,0.109
		c0.035,0.034,0.066,0.073,0.105,0.104c0.034,0.035,0.066,0.073,0.105,0.105c0.035,0.035,0.067,0.073,0.106,0.105
		c0.035,0.038,0.067,0.075,0.107,0.109c0.035,0.034,0.066,0.073,0.105,0.104c0.035,0.035,0.067,0.073,0.107,0.107
		c0.035,0.037,0.066,0.071,0.105,0.104c0.035,0.036,0.067,0.075,0.106,0.107c0.035,0.036,0.067,0.075,0.107,0.106
		c0.034,0.035,0.065,0.073,0.104,0.105c0.035,0.035,0.067,0.073,0.106,0.105c0.035,0.036,0.067,0.075,0.106,0.107
		c0.035,0.036,0.067,0.075,0.107,0.106c0.035,0.035,0.065,0.073,0.105,0.105c0.034,0.035,0.066,0.073,0.105,0.105
		c0.035,0.036,0.067,0.075,0.107,0.109c0.035,0.034,0.066,0.073,0.106,0.104c0.034,0.035,0.066,0.073,0.105,0.105
		c0.035,0.035,0.066,0.073,0.106,0.105c0.035,0.036,0.066,0.073,0.107,0.107c0.034,0.036,0.066,0.075,0.106,0.106
		c0.035,0.035,0.067,0.073,0.107,0.105c0.035,0.037,0.066,0.073,0.105,0.105c0.034,0.036,0.065,0.073,0.104,0.105
		c0.036,0.036,0.069,0.075,0.109,0.108c0.034,0.035,0.066,0.073,0.105,0.105c0.034,0.035,0.066,0.073,0.106,0.105
		c0.035,0.037,0.066,0.073,0.106,0.105c0.035,0.036,0.066,0.073,0.106,0.107c0.035,0.036,0.066,0.072,0.106,0.106
		c0.035,0.035,0.067,0.073,0.106,0.107c0.034,0.035,0.066,0.071,0.105,0.104c0.035,0.036,0.067,0.075,0.107,0.107
		c0.034,0.036,0.066,0.073,0.106,0.106c0.035,0.035,0.067,0.073,0.106,0.107c0.035,0.035,0.067,0.071,0.106,0.104
		c0.035,0.036,0.066,0.073,0.105,0.106c0.036,0.037,0.067,0.074,0.107,0.107c0.035,0.035,0.066,0.073,0.106,0.105
		c0.035,0.037,0.066,0.073,0.106,0.107c0.035,0.034,0.066,0.071,0.105,0.104c0.036,0.037,0.067,0.074,0.106,0.107
		c0.035,0.035,0.067,0.073,0.107,0.105c0.034,0.037,0.066,0.073,0.106,0.105c0.034,0.036,0.066,0.073,0.106,0.107
		c0.035,0.036,0.066,0.072,0.104,0.104c0.035,0.037,0.068,0.075,0.108,0.107c0.034,0.037,0.066,0.073,0.106,0.105
		c0.034,0.036,0.066,0.073,0.106,0.107c0.035,0.036,0.066,0.073,0.106,0.106c0.035,0.035,0.066,0.071,0.105,0.105
		c0.036,0.036,0.067,0.073,0.107,0.105c0.035,0.036,0.067,0.075,0.106,0.108c0.034,0.035,0.065,0.071,0.104,0.103
		c0.035,0.037,0.068,0.074,0.107,0.108c0.036,0.036,0.067,0.073,0.106,0.105c0.035,0.036,0.067,0.073,0.107,0.107
		c0.035,0.035,0.066,0.072,0.104,0.104c0.035,0.038,0.068,0.074,0.107,0.108c0.036,0.036,0.067,0.073,0.106,0.105
		c0.034,0.035,0.067,0.073,0.106,0.106c0.036,0.036,0.067,0.073,0.106,0.105c0.034,0.036,0.066,0.073,0.105,0.106
		c0.036,0.037,0.068,0.074,0.108,0.106c0.034,0.036,0.066,0.073,0.104,0.106c0.035,0.034,0.067,0.073,0.107,0.105
		c0.035,0.037,0.067,0.073,0.106,0.107c0.036,0.036,0.066,0.072,0.105,0.105c0.035,0.035,0.067,0.073,0.106,0.106
		c0.035,0.034,0.067,0.073,0.106,0.104c0.035,0.038,0.068,0.074,0.108,0.108c0.035,0.036,0.066,0.073,0.105,0.105
		c0.034,0.035,0.065,0.072,0.105,0.106c0.035,0.034,0.067,0.073,0.107,0.105c0.034,0.037,0.067,0.073,0.106,0.107
		c0.036,0.036,0.067,0.073,0.105,0.105c0.035,0.035,0.067,0.073,0.106,0.106c0.035,0.034,0.066,0.073,0.106,0.104
		c0.035,0.037,0.067,0.074,0.107,0.108c0.027,0.028,0.055,0.056,0.084,0.083C28.406,61.812,30.18,62,32,62
		C45.391,62,56.727,53.219,60.585,41.104z"/>
	<path fill="#65C6BB" d="M32,20.567l13.158,22.861H18.842L32,20.567 M32,13.073c-0.543,0-1.085,0.359-1.497,1.073L12.556,45.327
		c-0.823,1.43-0.146,2.601,1.504,2.601h35.88c1.65,0,2.326-1.171,1.504-2.601L33.496,14.146C33.084,13.432,32.543,13.073,32,13.073
		L32,13.073z"/>
</g>
</svg>
